<svg version="1.1" height="106" width="106" xmlns="http://www.w3.org/2000/svg" xmlns:xlink="http://www.w3.org/1999/xlink">
<style>
		path, circle, polygon {
			stroke: black;
		}
    path#r {
      fill: black;
    }
		@media ( prefers-color-scheme: dark ) {
			path, circle, polygon {
        stroke: white;
			}
			path#r {
        fill: white;
			}
		}
</style>
<g id="logo" transform="translate(53, 53)">
	<path id="r" transform="scale(0.65, 0.65) translate(-53, -55)" 
    stroke-width="1" stroke-linejoin="round" 
    d="M84.038,65.464c0.117-0.399,0.238-0.796,0.341-1.205c4.402-17.539-6.342-38.275-24.523-49.193
		c7.968,10.801,11.49,23.883,8.36,35.324c-0.279,1.02-0.615,2-0.986,2.952c-0.403-0.264-0.91-0.565-1.591-0.94
		c0,0-18.086-11.167-37.688-30.918c-0.514-0.519,10.453,15.675,22.899,28.824C44.987,47.016,28.646,35.126,18.3,25.658
		c1.271,2.12,2.783,4.161,4.444,6.126c8.64,10.956,19.906,24.475,33.404,34.855c-9.484,5.804-22.885,6.255-36.227,0.006
		c-3.3-1.547-6.403-3.413-9.274-5.533c5.648,9.034,14.347,16.828,24.934,21.379c12.625,5.426,25.18,5.058,34.531,0.089l-0.007,0.011
		c0.032-0.02,0.067-0.041,0.1-0.061c0.42-0.225,0.836-0.457,1.242-0.7c4.517-2.319,13.331-4.607,18.067,4.609
		c1.166,2.268,3.645-9.752-5.468-20.965C84.043,65.469,84.041,65.467,84.038,65.464z"/>

  <!-- <path id="r" transform="translate(0.5, 0.5)" stroke="black" stroke-width="1" stroke-linejoin="round" d="     M -9,-15 H 4 C 12,-15 12,-7 4,-7 H -9 Z     M -40,22 H 0 V 11 H -9 V 3 H 1 C 12,3 6,22 15,22 H 40     V 3 H 34 V 5 C 34,13 25,12 24,7 C 23,2 19,-2 18,-2 C 33,-10 24,-26 12,-26 H -35     V -15 H -25 V 11 H -40 Z"/> -->
  <g id="gear" mask="url(#holes)">
    <circle r="43" fill="none" stroke="black" stroke-width="9"/>
    <g id="cogs">
      <polygon id="cog" stroke="black" stroke-width="3" stroke-linejoin="round" points="46,3 51,0 46,-3"/>
      <use xlink:href="#cog" transform="rotate(11.25)"/>
      <use xlink:href="#cog" transform="rotate(22.50)"/>
      <use xlink:href="#cog" transform="rotate(33.75)"/>
      <use xlink:href="#cog" transform="rotate(45.00)"/>
      <use xlink:href="#cog" transform="rotate(56.25)"/>
      <use xlink:href="#cog" transform="rotate(67.50)"/>
      <use xlink:href="#cog" transform="rotate(78.75)"/>
      <use xlink:href="#cog" transform="rotate(90.00)"/>
      <use xlink:href="#cog" transform="rotate(101.25)"/>
      <use xlink:href="#cog" transform="rotate(112.50)"/>
      <use xlink:href="#cog" transform="rotate(123.75)"/>
      <use xlink:href="#cog" transform="rotate(135.00)"/>
      <use xlink:href="#cog" transform="rotate(146.25)"/>
      <use xlink:href="#cog" transform="rotate(157.50)"/>
      <use xlink:href="#cog" transform="rotate(168.75)"/>
      <use xlink:href="#cog" transform="rotate(180.00)"/>
      <use xlink:href="#cog" transform="rotate(191.25)"/>
      <use xlink:href="#cog" transform="rotate(202.50)"/>
      <use xlink:href="#cog" transform="rotate(213.75)"/>
      <use xlink:href="#cog" transform="rotate(225.00)"/>
      <use xlink:href="#cog" transform="rotate(236.25)"/>
      <use xlink:href="#cog" transform="rotate(247.50)"/>
      <use xlink:href="#cog" transform="rotate(258.75)"/>
      <use xlink:href="#cog" transform="rotate(270.00)"/>
      <use xlink:href="#cog" transform="rotate(281.25)"/>
      <use xlink:href="#cog" transform="rotate(292.50)"/>
      <use xlink:href="#cog" transform="rotate(303.75)"/>
      <use xlink:href="#cog" transform="rotate(315.00)"/>
      <use xlink:href="#cog" transform="rotate(326.25)"/>
      <use xlink:href="#cog" transform="rotate(337.50)"/>
      <use xlink:href="#cog" transform="rotate(348.75)"/>
    </g>
    <g id="mounts">
      <polygon id="mount" stroke="black" stroke-width="6" stroke-linejoin="round" points="-7,-42 0,-35 7,-42"/>
      <use xlink:href="#mount" transform="rotate(72)"/>
      <use xlink:href="#mount" transform="rotate(144)"/>
      <use xlink:href="#mount" transform="rotate(216)"/>
      <use xlink:href="#mount" transform="rotate(288)"/>
    </g>
  </g>
  <mask id="holes">
    <rect x="-60" y="-60" width="120" height="120" fill="white"/>
    <circle id="hole" cy="-40" r="3"/>
    <use xlink:href="#hole" transform="rotate(72)"/>
    <use xlink:href="#hole" transform="rotate(144)"/>
    <use xlink:href="#hole" transform="rotate(216)"/>
    <use xlink:href="#hole" transform="rotate(288)"/>
  </mask>
</g>
</svg>