<?xml version="1.0" standalone="no"?>
<!DOCTYPE svg PUBLIC "-//W3C//DTD SVG 20010904//EN"
 "http://www.w3.org/TR/2001/REC-SVG-20010904/DTD/svg10.dtd">
<svg version="1.0" xmlns="http://www.w3.org/2000/svg"
 width="700.000000pt" height="700.000000pt" viewBox="0 0 700.000000 700.000000"
 preserveAspectRatio="xMidYMid meet">
<metadata>
Created by potrace 1.14, written by Peter Selinger 2001-2017
</metadata>
<g transform="translate(0.000000,700.000000) scale(0.100000,-0.100000)"
fill="#000000" stroke="none">
<path d="M3470 6963 c-31 -12 -54 -41 -132 -173 -103 -171 -102 -170 -154
-170 -41 0 -44 2 -159 130 -65 72 -126 135 -136 140 -31 17 -76 11 -106 -14
-22 -19 -42 -61 -88 -191 -61 -174 -60 -172 -126 -188 -22 -6 -46 8 -150 85
-196 145 -213 151 -270 100 -29 -26 -31 -34 -58 -210 -16 -100 -30 -184 -32
-186 -10 -9 -69 -36 -79 -36 -5 0 -82 34 -171 75 -88 41 -169 75 -180 75 -34
0 -76 -28 -88 -59 -10 -22 -10 -71 -3 -202 l9 -174 -30 -32 c-17 -18 -38 -33
-46 -33 -9 0 -93 18 -187 42 -156 38 -174 40 -203 28 -20 -8 -39 -26 -49 -47
-16 -33 -15 -40 26 -206 23 -95 42 -179 42 -188 0 -8 -15 -29 -33 -46 l-32
-30 -174 9 c-131 7 -180 7 -202 -3 -31 -12 -59 -54 -59 -88 0 -11 34 -92 75
-180 41 -87 75 -164 75 -170 0 -25 -36 -82 -55 -86 -11 -2 -87 -14 -170 -26
-165 -24 -207 -38 -224 -75 -25 -56 -17 -73 120 -255 l90 -120 -13 -47 -14
-47 -168 -60 c-128 -46 -174 -67 -192 -88 -25 -29 -31 -75 -15 -106 5 -9 68
-70 140 -135 129 -116 131 -119 131 -160 0 -52 1 -51 -170 -154 -75 -44 -144
-90 -155 -102 -26 -29 -26 -91 0 -120 11 -12 80 -58 155 -102 171 -103 170
-102 170 -154 0 -41 -2 -44 -131 -160 -72 -65 -135 -126 -140 -135 -16 -31
-10 -77 15 -106 18 -21 64 -42 192 -88 l168 -60 14 -46 15 -46 -91 -121 c-139
-183 -146 -199 -121 -256 17 -37 59 -51 224 -75 83 -12 159 -24 170 -26 19 -4
55 -61 55 -86 0 -6 -34 -83 -75 -170 -41 -88 -75 -168 -75 -179 0 -33 23 -71
53 -87 24 -12 56 -13 176 -8 80 3 160 8 178 11 26 4 37 -1 62 -28 17 -18 31
-40 31 -48 0 -8 -19 -92 -42 -187 -41 -166 -42 -173 -26 -206 10 -21 29 -39
49 -47 29 -12 47 -10 203 28 94 24 178 42 186 42 8 0 30 -14 48 -31 27 -25 32
-36 28 -62 -3 -18 -8 -97 -11 -177 -5 -108 -3 -153 6 -174 14 -29 55 -56 88
-56 11 0 92 34 180 75 89 41 166 75 171 75 10 0 69 -27 79 -36 2 -2 16 -86 32
-186 27 -176 29 -184 58 -210 57 -51 73 -45 271 101 129 95 130 96 193 72 20
-8 34 -37 82 -176 46 -130 66 -172 88 -191 30 -25 75 -31 106 -14 10 5 71 68
136 140 115 128 118 130 159 130 52 0 51 1 154 -170 44 -75 90 -144 102 -155
29 -26 91 -26 120 0 12 11 58 80 102 155 103 171 102 170 154 170 41 0 44 -2
159 -130 65 -72 126 -135 136 -140 31 -17 77 -11 106 14 21 18 42 64 88 192
l60 168 46 14 46 15 121 -91 c194 -147 216 -155 273 -104 29 26 31 34 58 210
16 100 30 184 32 186 11 9 69 36 80 36 6 0 83 -34 170 -75 88 -41 169 -75 180
-75 33 0 74 27 88 56 9 21 11 66 6 174 -3 80 -8 159 -11 177 -4 26 1 37 28 62
18 17 40 31 48 31 8 0 92 -18 186 -42 156 -38 174 -40 203 -28 20 8 39 26 49
47 16 33 15 40 -26 206 -23 95 -42 179 -42 187 0 8 14 30 31 48 25 27 36 32
62 28 18 -3 98 -8 178 -11 120 -5 152 -4 176 8 30 16 53 54 53 87 0 11 -34 91
-75 179 -41 87 -75 164 -75 170 0 11 27 69 36 80 2 2 86 16 186 32 176 27 184
29 210 58 51 57 43 79 -104 273 l-91 121 15 46 14 46 168 60 c128 46 174 67
192 88 25 29 31 75 14 106 -5 10 -68 71 -140 136 -127 116 -130 119 -130 160
0 51 -1 50 170 153 75 44 144 90 155 102 26 29 26 91 0 120 -11 12 -80 58
-155 102 -171 103 -170 102 -170 153 0 41 3 44 130 160 72 65 135 126 140 136
17 31 11 77 -14 106 -18 21 -64 42 -192 88 l-168 60 -14 46 -15 46 91 121
c139 183 146 199 121 256 -17 37 -59 51 -224 75 -82 12 -159 24 -170 26 -19 4
-55 61 -55 86 0 6 34 83 75 170 41 88 75 168 75 179 0 33 -23 71 -53 87 -24
12 -56 13 -176 8 -80 -3 -160 -8 -178 -11 -26 -4 -37 1 -62 28 -17 18 -31 40
-31 48 0 8 19 92 42 187 41 166 42 173 26 206 -10 21 -29 39 -49 47 -29 12
-47 10 -203 -28 -94 -24 -178 -42 -186 -42 -8 0 -30 14 -48 31 -27 25 -32 36
-28 62 3 18 8 97 11 177 5 108 3 153 -6 174 -14 29 -55 56 -88 56 -11 0 -92
-34 -180 -75 -87 -41 -164 -75 -170 -75 -11 0 -69 27 -80 36 -2 2 -16 86 -32
186 -27 176 -29 184 -58 210 -57 51 -79 43 -273 -104 l-121 -91 -46 15 -46 14
-60 168 c-46 128 -67 174 -88 192 -29 25 -75 31 -106 14 -10 -5 -71 -68 -136
-140 -115 -128 -118 -130 -159 -130 -52 0 -51 -1 -154 170 -44 75 -89 143 -99
153 -21 19 -70 29 -93 20z m125 -612 c113 -51 165 -188 114 -301 -27 -60 -54
-88 -114 -116 -64 -31 -125 -31 -191 0 -141 65 -179 244 -76 358 48 53 102 78
172 78 32 0 72 -8 95 -19z m-385 -527 c96 -96 189 -183 205 -191 36 -19 130
-21 165 -4 14 7 106 94 206 193 l180 179 75 -16 c271 -60 526 -162 767 -305
334 -199 670 -533 867 -864 l58 -97 -117 -229 c-127 -250 -134 -275 -97 -355
27 -61 65 -87 292 -201 207 -103 208 -104 216 -141 4 -21 8 -153 8 -293 0
-290 -12 -388 -75 -635 -96 -379 -284 -737 -545 -1037 -44 -51 -65 -68 -84
-68 -14 0 -130 16 -258 37 -230 36 -232 36 -278 19 -59 -23 -109 -75 -124
-129 -6 -23 -27 -140 -46 -261 -19 -120 -36 -220 -37 -221 -37 -31 -293 -124
-453 -165 -248 -63 -345 -75 -635 -75 -279 0 -377 11 -601 66 -159 38 -417
129 -477 167 -7 5 -26 95 -47 228 -19 120 -40 238 -46 261 -15 55 -63 105
-122 128 l-48 18 -252 -40 -252 -41 -48 52 c-78 83 -222 278 -287 388 -179
301 -287 609 -342 973 -14 100 -18 564 -5 628 8 37 9 38 216 141 227 114 265
140 292 201 37 80 30 105 -97 355 l-117 229 58 97 c134 225 379 505 585 668
291 230 623 395 965 480 117 29 136 33 150 35 6 0 89 -78 185 -175z m-2153
-1289 c86 -26 163 -125 163 -212 0 -54 -24 -115 -61 -157 -51 -58 -107 -80
-192 -74 -83 5 -135 38 -177 111 -77 134 -6 301 145 338 47 11 68 10 122 -6z
m5063 -15 c112 -57 153 -195 92 -311 -40 -77 -93 -112 -178 -117 -85 -6 -141
16 -192 73 -84 96 -80 224 10 315 70 69 178 86 268 40z m-4082 -2946 c107 -44
165 -171 128 -282 -56 -168 -279 -213 -391 -80 -40 47 -55 89 -55 155 0 124
99 223 223 223 32 0 74 -7 95 -16z m3129 -14 c155 -89 150 -320 -7 -400 -58
-30 -110 -34 -172 -16 -138 40 -205 196 -139 324 41 80 110 121 206 122 49 0
70 -6 112 -30z"/>
<path d="M3782 5227 c-8 -9 9 -42 64 -127 233 -358 349 -744 331 -1099 -8
-155 -48 -352 -78 -385 -9 -10 -72 27 -244 147 -442 307 -877 668 -1296 1075
-69 67 -131 122 -137 122 -26 0 -21 -25 14 -78 156 -236 548 -741 756 -973 37
-42 68 -80 68 -84 0 -10 -230 150 -430 298 -291 216 -719 564 -784 636 -11 11
-25 21 -33 21 -52 0 5 -90 246 -390 467 -582 886 -1023 1258 -1324 40 -32 71
-62 68 -66 -9 -15 -150 -77 -231 -103 -168 -53 -235 -62 -454 -62 -173 0 -223
4 -319 23 -258 52 -545 171 -776 323 -129 84 -133 86 -141 65 -4 -10 16 -47
52 -98 241 -346 550 -612 919 -794 571 -280 1160 -298 1620 -50 161 87 304
121 438 105 133 -16 237 -84 318 -209 59 -90 82 -99 109 -45 26 52 19 277 -13
396 -45 171 -115 320 -209 447 l-40 53 22 107 c82 404 -13 859 -267 1277 -159
260 -412 528 -668 706 -128 89 -151 101 -163 86z"/>
</g>
</svg>
